<?xml version="1.0" standalone="no"?><!DOCTYPE svg PUBLIC "-//W3C//DTD SVG 1.1//EN" "http://www.w3.org/Graphics/SVG/1.1/DTD/svg11.dtd"><svg t="1603865805279" class="icon" viewBox="0 0 1024 1024" version="1.1" xmlns="http://www.w3.org/2000/svg" p-id="7340" xmlns:xlink="http://www.w3.org/1999/xlink" width="200" height="200"><defs><style type="text/css"></style></defs><path d="M374.720915 619.887172 210.629673 619.887172l0 55.112202 158.683069 0C370.012683 656.227846 371.848495 637.835963 374.720915 619.887172L374.720915 619.887172z" p-id="7341" fill="#ffffff"></path><path d="M210.629673 405.910776l353.807095 0c29.618575-13.797237 61.45363-22.044062 94.675266-23.715121l0-31.399127L210.629673 350.796528 210.629673 405.910776 210.629673 405.910776z" p-id="7342" fill="#ffffff"></path><path d="M160.554184 771.537058c-20.847817 0-29.540803-8.698103-29.540803-29.526477l0-593.077573c0-20.828374 8.694009-29.52443 29.540803-29.52443l548.628222 0c20.826328 0 29.54592 8.696056 29.54592 29.52443L738.728326 386.157897c23.485901 4.300956 33.708729 11.326976 54.92596 20.72502L793.654286 109.262496c0-24.76708-20.083407-44.847417-44.847417-44.847417L120.934838 64.415079c-24.769127 0-44.852534 20.081361-44.852534 44.847417l0 672.728658c0 24.758893 20.083407 44.847417 44.852534 44.847417l283.845697 0c-11.346419-21.156856-20.263509-31.520901-26.356274-55.301514L181.020308 771.537058 160.554184 771.537058z" p-id="7343" fill="#ffffff"></path><path d="M210.629673 216.251206l448.481338 0 0 55.113225-448.481338 0 0-55.113225Z" p-id="7344" fill="#ffffff"></path><path d="M681.446715 422.280606c-148.146085 0-268.25358 120.090099-268.25358 268.257673 0 148.145062 120.112612 268.257673 268.25358 268.257673 148.164504 0 268.25665-120.113635 268.25665-268.257673C949.703365 542.371728 829.61122 422.280606 681.446715 422.280606zM681.925622 907.299091C562.932508 907.299091 466.477712 810.848389 466.477712 691.856297c0-118.998231 96.455819-215.45712 215.44791-215.45712 119.001301 0 215.452004 96.458889 215.452004 215.45712C897.376603 810.848389 800.921807 907.299091 681.925622 907.299091z" p-id="7345" fill="#ffffff"></path><path d="M210.629673 485.339804l0 55.113225 197.292412 0c8.973372-19.527752 19.332301-37.97387 30.9325-55.113225L210.629673 485.339804z" p-id="7346" fill="#ffffff"></path><path d="M824.259328 586.360592 639.752104 770.867816 545.963021 677.344792 506.232135 717.184149 639.752104 850.329589 863.990215 626.091478 824.259328 586.360592Z" p-id="7347" fill="#ffffff"></path></svg>