<?xml version="1.0" standalone="no"?><!DOCTYPE svg PUBLIC "-//W3C//DTD SVG 1.1//EN" "http://www.w3.org/Graphics/SVG/1.1/DTD/svg11.dtd"><svg t="1603866168690" class="icon" viewBox="0 0 1024 1024" version="1.1" xmlns="http://www.w3.org/2000/svg" p-id="10263" xmlns:xlink="http://www.w3.org/1999/xlink" width="250" height="250"><defs><style type="text/css"></style></defs><path d="M777.7 251.9c-68.93-71.08-161.28-111.07-260-112.58-98.7-1.82-192.28 35.6-263.37 104.55s-111.06 161.27-112.58 260C138.62 708 302.17 876.68 506.32 879.81a369.76 369.76 0 0 0 166-36.4l146.47 40.18a33 33 0 0 0 8 1.14h0.54a32.15 32.15 0 0 0 30.23-43l-42.68-119.17a367.27 367.27 0 0 0 67.36-207.31C883.75 416.51 846.63 323 777.7 251.9zM864.06 515a349.17 349.17 0 0 1-66.71 200.8l-2.81 3.89 45.9 128.19a13.87 13.87 0 0 1-2.92 14.21c-2.68 2.91-6.87 4.9-10.42 4.45a14.09 14.09 0 0 1-3.51-0.49l-153.06-42-3.09 1.53c-49.68 24.45-105.2 37.32-160.84 36-194.13-3-349.64-163.33-346.67-357.45 1.44-93.89 39.47-181.7 107.05-247.25s157-101 250.42-99.41c93.89 1.43 181.69 39.45 247.25 107S865.5 421.07 864.06 515z" fill="#ffffff" p-id="10264"></path><path d="M391.61 469.43a40.13 40.13 0 1 0 40.13 40.13 40.12 40.12 0 0 0-40.13-40.13zM532.09 474.8a40.18 40.18 0 1 0 20 34.76 40.26 40.26 0 0 0-20-34.76z" fill="#ffffff" p-id="10265"></path><path d="M632.329953 549.700944a40.12 40.13 0.09 1 0 0.126072-80.259901 40.12 40.13 0.09 1 0-0.126072 80.259901Z" fill="#ffffff" p-id="10266"></path></svg>